<?xml version="1.0" encoding="UTF-8"?>
<svg xmlns="http://www.w3.org/2000/svg" width="960" height="1340" viewBox="0 0 240 335" preserveAspectRatio="xMidYMid slice"><defs></defs><g fill="#1D2523"><path d="M0,0 L0,47.62 L0.5,47.56 L1,47.5 L1.5,47.44 L2,47.39 L2.5,47.34 L3,47.29 L3.5,47.25 L4,47.21 L4.5,47.17 L5,47.13 L5.5,47.1 L6,47.07 L6.5,47.04 L7,47.01 L7.5,46.99 L8,46.97 L8.5,46.95 L9,46.94 L9.5,46.92 L10,46.91 L10.5,46.91 L11,46.9 L11.5,46.9 L12,46.9 L12.5,46.9 L13,46.91 L13.5,46.92 L14,46.93 L14.5,46.95 L15,46.96 L15.5,46.98 L16,47.01 L16.5,47.03 L17,47.06 L17.5,47.09 L18,47.12 L18.5,47.16 L19,47.2 L19.5,47.24 L20,47.28 L20.5,47.33 L21,47.38 L21.5,47.43 L22,47.48 L22.5,47.54 L23,47.6 L23.5,47.66 L24,47.73 L24.5,47.8 L25,47.87 L25.5,47.94 L26,48.02 L26.5,48.1 L27,48.18 L27.5,48.26 L28,48.35 L28.5,48.44 L29,48.53 L29.5,48.63 L30,48.73 L30.5,48.83 L31,48.93 L31.5,49.04 L32,49.15 L32.5,49.26 L33,49.38 L33.5,49.5 L34,49.62 L34.5,49.74 L35,49.87 L35.5,50 L36,50.13 L36.5,50.26 L37,50.4 L37.5,50.54 L38,50.68 L38.5,50.83 L39,50.98 L39.5,51.13 L40,51.29 L40.5,51.45 L41,51.61 L41.5,51.77 L42,51.94 L42.5,52.11 L43,52.28 L43.5,52.46 L44,52.63 L44.5,52.82 L45,53 L45.5,53.19 L46,53.38 L46.5,53.57 L47,53.77 L47.5,53.97 L48,54.17 L48.5,54.38 L49,54.59 L49.5,54.8 L50,55.02 L50.5,55.23 L51,55.46 L51.5,55.68 L52,55.91 L52.5,56.14 L53,56.38 L53.5,56.61 L54,56.85 L54.5,57.1 L55,57.35 L55.5,57.6 L56,57.85 L56.5,58.11 L57,58.37 L57.5,58.63 L58,58.9 L58.5,59.17 L59,59.45 L59.5,59.73 L60,60.01 L60.5,60.29 L61,60.58 L61.5,60.87 L62,61.17 L62.5,61.47 L63,61.77 L63.5,62.08 L64,62.39 L64.5,62.7 L65,63.02 L65.5,63.34 L66,63.66 L66.5,63.99 L67,64.33 L67.5,64.66 L68,65 L68.5,65.35 L69,65.69 L69.5,66.05 L70,66.4 L70.5,66.76 L71,67.13 L71.5,67.49 L72,67.87 L72.5,68.24 L73,68.62 L73.5,69.01 L74,69.4 L74.5,69.79 L75,70.19 L75.5,70.59 L76,71 L76.5,71.41 L77,71.82 L77.5,72.24 L78,72.67 L78.5,73.1 L79,73.53 L79.5,73.97 L80,74.41 L80.5,74.86 L81,75.31 L81.5,75.77 L82,76.23 L82.5,76.7 L83,77.17 L83.5,77.65 L84,78.14 L84.5,78.63 L85,79.12 L85.5,79.62 L86,80.12 L86.5,80.63 L87,81.15 L87.5,81.67 L88,82.2 L88.5,82.73 L89,83.27 L89.5,83.82 L90,84.37 L90.5,84.93 L91,85.49 L91.5,86.06 L92,86.64 L92.5,87.22 L93,87.81 L93.5,88.41 L94,89.01 L94.5,89.62 L95,90.24 L95.5,90.86 L96,91.5 L96.5,92.13 L97,92.78 L97.5,93.44 L98,94.1 L98.5,94.77 L99,95.45 L99.5,96.14 L100,96.83 L100.5,97.54 L101,98.25 L101.5,98.97 L102,99.7 L102.5,100.44 L103,101.19 L103.5,101.95 L104,102.72 L104.5,103.51 L105,104.3 L105.5,105.1 L106,105.91 L106.5,106.74 L107,107.57 L107.5,108.42 L108,109.28 L108.5,110.16 L109,111.04 L109.5,111.94 L110,112.86 L110.5,113.78 L111,114.73 L111.5,115.68 L112,116.66 L112.5,117.65 L113,118.65 L113.5,119.68 L114,120.72 L114.5,121.78 L115,122.86 L115.5,123.97 L116,125.09 L116.5,126.24 L117,127.4 L117.5,128.6 L118,129.82 L118.5,131.06 L119,132.34 L119.5,133.65 L120,134.98 L120.5,136.35 L121,137.76 L121.5,139.21 L122,140.7 L122.5,142.23 L123,143.81 L123.5,145.45 L124,147.14 L124.5,148.89 L125,150.71 L125.5,152.61 L126,154.6 L126.5,156.68 L127,158.88 L127.5,161.21 L128,163.69 L128.5,166.37 L129,169.28 L129.5,172.5 L130,176.16 L130.5,180.47 L131,186.01 L131.5,195.76 L132,187.96 L132.5,181.85 L133,177.28 L133.5,173.47 L134,170.14 L134.5,167.15 L135,164.42 L135.5,161.88 L136,159.51 L136.5,157.28 L137,155.17 L137.5,153.15 L138,151.23 L138.5,149.39 L139,147.62 L139.5,145.91 L140,144.26 L140.5,142.66 L141,141.12 L141.5,139.62 L142,138.16 L142.5,136.74 L143,135.36 L143.5,134.01 L144,132.7 L144.5,131.42 L145,130.16 L145.5,128.93 L146,127.73 L146.5,126.56 L147,125.41 L147.5,124.28 L148,123.17 L148.5,122.08 L149,121.01 L149.5,119.97 L150,118.94 L150.5,117.93 L151,116.93 L151.5,115.95 L152,114.99 L152.5,114.04 L153,113.11 L153.5,112.19 L154,111.29 L154.5,110.4 L155,109.52 L155.5,108.66 L156,107.81 L156.5,106.97 L157,106.14 L157.5,105.32 L158,104.52 L158.5,103.72 L159,102.94 L159.5,102.17 L160,101.4 L160.5,100.65 L161,99.91 L161.5,99.17 L162,98.45 L162.5,97.73 L163,97.03 L163.5,96.33 L164,95.64 L164.5,94.96 L165,94.28 L165.5,93.62 L166,92.96 L166.5,92.31 L167,91.67 L167.5,91.04 L168,90.41 L168.5,89.79 L169,89.18 L169.5,88.57 L170,87.98 L170.5,87.38 L171,86.8 L171.5,86.22 L172,85.65 L172.5,85.08 L173,84.52 L173.5,83.97 L174,83.42 L174.5,82.88 L175,82.35 L175.5,81.82 L176,81.29 L176.5,80.78 L177,80.27 L177.5,79.76 L178,79.26 L178.5,78.76 L179,78.27 L179.5,77.79 L180,77.31 L180.5,76.83 L181,76.36 L181.5,75.9 L182,75.44 L182.5,74.99 L183,74.54 L183.5,74.09 L184,73.65 L184.5,73.22 L185,72.79 L185.5,72.36 L186,71.94 L186.5,71.52 L187,71.11 L187.5,70.7 L188,70.3 L188.5,69.9 L189,69.51 L189.5,69.12 L190,68.73 L190.5,68.35 L191,67.97 L191.5,67.6 L192,67.23 L192.5,66.86 L193,66.5 L193.5,66.14 L194,65.79 L194.5,65.44 L195,65.1 L195.5,64.76 L196,64.42 L196.5,64.08 L197,63.76 L197.5,63.43 L198,63.11 L198.5,62.79 L199,62.47 L199.5,62.16 L200,61.86 L200.5,61.55 L201,61.25 L201.5,60.95 L202,60.66 L202.5,60.37 L203,60.09 L203.5,59.8 L204,59.52 L204.5,59.25 L205,58.98 L205.5,58.71 L206,58.44 L206.5,58.18 L207,57.92 L207.5,57.67 L208,57.42 L208.5,57.17 L209,56.92 L209.5,56.68 L210,56.44 L210.5,56.21 L211,55.97 L211.5,55.74 L212,55.52 L212.5,55.3 L213,55.08 L213.5,54.86 L214,54.65 L214.5,54.44 L215,54.23 L215.5,54.03 L216,53.83 L216.5,53.63 L217,53.43 L217.5,53.24 L218,53.05 L218.5,52.87 L219,52.68 L219.5,52.5 L220,52.33 L220.5,52.15 L221,51.98 L221.5,51.82 L222,51.65 L222.5,51.49 L223,51.33 L223.5,51.18 L224,51.02 L224.5,50.87 L225,50.72 L225.5,50.58 L226,50.44 L226.5,50.3 L227,50.16 L227.5,50.03 L228,49.9 L228.5,49.77 L229,49.65 L229.5,49.53 L230,49.41 L230.5,49.29 L231,49.18 L231.5,49.07 L232,48.96 L232.5,48.86 L233,48.76 L233.5,48.66 L234,48.56 L234.5,48.47 L235,48.38 L235.5,48.29 L236,48.2 L236.5,48.12 L237,48.04 L237.5,47.96 L238,47.89 L238.5,47.82 L239,47.75 L239.5,47.68 L240,47.62 L240,0 Z"></path></g><g fill="#121916"><path d="M0,0 L0,34 L0.5,33.92 L1,33.84 L1.5,33.77 L2,33.71 L2.5,33.66 L3,33.62 L3.5,33.58 L4,33.55 L4.5,33.52 L5,33.51 L5.5,33.5 L6,33.5 L6.5,33.51 L7,33.52 L7.5,33.54 L8,33.57 L8.5,33.61 L9,33.65 L9.5,33.71 L10,33.76 L10.5,33.83 L11,33.91 L11.5,33.99 L12,34.08 L12.5,34.17 L13,34.28 L13.5,34.39 L14,34.51 L14.5,34.64 L15,34.77 L15.5,34.91 L16,35.07 L16.5,35.22 L17,35.39 L17.5,35.56 L18,35.75 L18.5,35.93 L19,36.13 L19.5,36.34 L20,36.55 L20.5,36.77 L21,37 L21.5,37.24 L22,37.49 L22.5,37.74 L23,38.01 L23.5,38.28 L24,38.56 L24.5,38.85 L25,39.15 L25.5,39.45 L26,39.77 L26.5,40.09 L27,40.42 L27.5,40.77 L28,41.12 L28.5,41.48 L29,41.85 L29.5,42.23 L30,42.62 L30.5,43.02 L31,43.43 L31.5,43.84 L32,44.27 L32.5,44.71 L33,45.16 L33.5,45.62 L34,46.09 L34.5,46.57 L35,47.07 L35.5,47.57 L36,48.09 L36.5,48.61 L37,49.15 L37.5,49.7 L38,50.26 L38.5,50.84 L39,51.42 L39.5,52.03 L40,52.64 L40.5,53.27 L41,53.91 L41.5,54.56 L42,55.23 L42.5,55.91 L43,56.61 L43.5,57.33 L44,58.06 L44.5,58.8 L45,59.57 L45.5,60.35 L46,61.14 L46.5,61.96 L47,62.79 L47.5,63.65 L48,64.52 L48.5,65.42 L49,66.33 L49.5,67.27 L50,68.24 L50.5,69.22 L51,70.23 L51.5,71.27 L52,72.33 L52.5,73.43 L53,74.55 L53.5,75.71 L54,76.9 L54.5,78.12 L55,79.38 L55.5,80.68 L56,82.03 L56.5,83.42 L57,84.85 L57.5,86.35 L58,87.89 L58.5,89.5 L59,91.18 L59.5,92.94 L60,94.78 L60.5,96.71 L61,98.75 L61.5,100.92 L62,103.23 L62.5,105.72 L63,108.42 L63.5,111.4 L64,114.75 L64.5,118.64 L65,123.42 L65.5,130.27 L66,131.63 L66.5,124.2 L67,119.23 L67.5,115.25 L68,111.84 L68.5,108.82 L69,106.08 L69.5,103.56 L70,101.23 L70.5,99.04 L71,96.99 L71.5,95.04 L72,93.19 L72.5,91.42 L73,89.73 L73.5,88.11 L74,86.56 L74.5,85.06 L75,83.61 L75.5,82.22 L76,80.87 L76.5,79.56 L77,78.29 L77.5,77.06 L78,75.87 L78.5,74.71 L79,73.58 L79.5,72.48 L80,71.42 L80.5,70.37 L81,69.36 L81.5,68.37 L82,67.41 L82.5,66.46 L83,65.54 L83.5,64.65 L84,63.77 L84.5,62.91 L85,62.07 L85.5,61.26 L86,60.46 L86.5,59.67 L87,58.91 L87.5,58.16 L88,57.43 L88.5,56.71 L89,56.01 L89.5,55.32 L90,54.65 L90.5,54 L91,53.35 L91.5,52.72 L92,52.11 L92.5,51.51 L93,50.92 L93.5,50.34 L94,49.78 L94.5,49.23 L95,48.69 L95.5,48.16 L96,47.64 L96.5,47.14 L97,46.64 L97.5,46.16 L98,45.69 L98.5,45.23 L99,44.77 L99.5,44.33 L100,43.9 L100.5,43.48 L101,43.07 L101.5,42.67 L102,42.28 L102.5,41.9 L103,41.53 L103.5,41.17 L104,40.82 L104.5,40.47 L105,40.14 L105.5,39.81 L106,39.5 L106.5,39.19 L107,38.89 L107.5,38.6 L108,38.32 L108.5,38.04 L109,37.78 L109.5,37.52 L110,37.28 L110.5,37.04 L111,36.81 L111.5,36.58 L112,36.37 L112.5,36.16 L113,35.96 L113.5,35.77 L114,35.59 L114.5,35.41 L115,35.25 L115.5,35.09 L116,34.94 L116.5,34.79 L117,34.66 L117.5,34.53 L118,34.41 L118.5,34.29 L119,34.19 L119.5,34.09 L120,34 L120.5,33.92 L121,33.84 L121.5,33.77 L122,33.71 L122.5,33.66 L123,33.62 L123.5,33.58 L124,33.55 L124.5,33.52 L125,33.51 L125.5,33.5 L126,33.5 L126.5,33.51 L127,33.52 L127.5,33.54 L128,33.57 L128.5,33.61 L129,33.65 L129.5,33.71 L130,33.76 L130.5,33.83 L131,33.91 L131.5,33.99 L132,34.08 L132.5,34.17 L133,34.28 L133.5,34.39 L134,34.51 L134.5,34.64 L135,34.77 L135.5,34.91 L136,35.07 L136.5,35.22 L137,35.39 L137.5,35.56 L138,35.75 L138.5,35.93 L139,36.13 L139.5,36.34 L140,36.55 L140.5,36.77 L141,37 L141.5,37.24 L142,37.49 L142.5,37.74 L143,38.01 L143.5,38.28 L144,38.56 L144.5,38.85 L145,39.15 L145.5,39.45 L146,39.77 L146.5,40.09 L147,40.42 L147.5,40.77 L148,41.12 L148.5,41.48 L149,41.85 L149.5,42.23 L150,42.62 L150.5,43.02 L151,43.43 L151.5,43.84 L152,44.27 L152.5,44.71 L153,45.16 L153.5,45.62 L154,46.09 L154.5,46.57 L155,47.07 L155.5,47.57 L156,48.09 L156.5,48.61 L157,49.15 L157.5,49.7 L158,50.26 L158.5,50.84 L159,51.42 L159.5,52.03 L160,52.64 L160.5,53.27 L161,53.91 L161.5,54.56 L162,55.23 L162.5,55.91 L163,56.61 L163.5,57.33 L164,58.06 L164.5,58.8 L165,59.57 L165.5,60.35 L166,61.14 L166.5,61.96 L167,62.79 L167.5,63.65 L168,64.52 L168.5,65.42 L169,66.33 L169.5,67.27 L170,68.24 L170.5,69.22 L171,70.23 L171.5,71.27 L172,72.33 L172.5,73.43 L173,74.55 L173.5,75.71 L174,76.9 L174.5,78.12 L175,79.38 L175.5,80.68 L176,82.03 L176.5,83.42 L177,84.85 L177.5,86.35 L178,87.89 L178.5,89.5 L179,91.18 L179.5,92.94 L180,94.78 L180.5,96.71 L181,98.75 L181.5,100.92 L182,103.23 L182.5,105.72 L183,108.42 L183.5,111.4 L184,114.75 L184.5,118.64 L185,123.42 L185.5,130.27 L186,131.63 L186.5,124.2 L187,119.23 L187.5,115.25 L188,111.84 L188.5,108.82 L189,106.08 L189.5,103.56 L190,101.23 L190.5,99.04 L191,96.99 L191.5,95.04 L192,93.19 L192.5,91.42 L193,89.73 L193.5,88.11 L194,86.56 L194.5,85.06 L195,83.61 L195.5,82.22 L196,80.87 L196.5,79.56 L197,78.29 L197.5,77.06 L198,75.87 L198.5,74.71 L199,73.58 L199.5,72.48 L200,71.42 L200.5,70.37 L201,69.36 L201.5,68.37 L202,67.41 L202.5,66.46 L203,65.54 L203.5,64.65 L204,63.77 L204.5,62.91 L205,62.07 L205.5,61.26 L206,60.46 L206.5,59.67 L207,58.91 L207.5,58.16 L208,57.43 L208.5,56.71 L209,56.01 L209.5,55.32 L210,54.65 L210.5,54 L211,53.35 L211.5,52.72 L212,52.11 L212.5,51.51 L213,50.92 L213.5,50.34 L214,49.78 L214.5,49.23 L215,48.69 L215.5,48.16 L216,47.64 L216.5,47.14 L217,46.64 L217.5,46.16 L218,45.69 L218.5,45.23 L219,44.77 L219.5,44.33 L220,43.9 L220.5,43.48 L221,43.07 L221.5,42.67 L222,42.28 L222.5,41.9 L223,41.53 L223.5,41.17 L224,40.82 L224.5,40.47 L225,40.14 L225.5,39.81 L226,39.5 L226.5,39.19 L227,38.89 L227.5,38.6 L228,38.32 L228.5,38.04 L229,37.78 L229.5,37.52 L230,37.28 L230.5,37.04 L231,36.81 L231.5,36.58 L232,36.37 L232.5,36.16 L233,35.96 L233.5,35.77 L234,35.59 L234.5,35.41 L235,35.25 L235.5,35.09 L236,34.94 L236.5,34.79 L237,34.66 L237.5,34.53 L238,34.41 L238.5,34.29 L239,34.19 L239.5,34.09 L240,34 L240,0 Z"></path></g></svg>
